<?xml version="1.0" encoding="UTF-8" standalone="no"?>
<!-- Created with Inkscape (http://www.inkscape.org/) -->

<svg
   width="165.44415mm"
   height="51.773788mm"
   viewBox="0 0 165.44415 51.773788"
   version="1.1"
   id="svg1"
   xmlns="http://www.w3.org/2000/svg"
   xmlns:svg="http://www.w3.org/2000/svg">
  <defs
     id="defs1" />
  <g
     id="layer1"
     transform="translate(-19.870529,-48.328409)">
    <path
       style="fill:#b3b3b3;fill-opacity:1;stroke-width:0.207154"
       id="rect13-8"
       width="4.2938995"
       height="9.3685083"
       x="25.112804"
       y="92.514008"
       d="m 25.112804,92.514008 h 4.2939 v 8.299792 a 1.0687177,1.0687177 135 0 1 -1.068718,1.06872 h -2.091614 a 1.1335671,1.1335671 45 0 1 -1.133568,-1.13357 z"
       transform="matrix(2.5873149,0,0,1.163323,42.971734,-18.420081)" />
    <path
       style="fill:#b3b3b3;fill-opacity:1;stroke-width:0.207154"
       id="rect13-2-7"
       width="4.2938995"
       height="9.3685083"
       x="25.112804"
       y="92.514008"
       d="m 25.112804,92.514008 h 4.2939 v 8.299792 a 1.0687177,1.0687177 135 0 1 -1.068718,1.06872 h -2.091614 a 1.1335671,1.1335671 45 0 1 -1.133568,-1.13357 z"
       transform="matrix(2.5873149,0,0,1.163323,64.03597,-18.420081)" />
    <path
       style="fill:#b3b3b3;fill-opacity:1;stroke-width:0.207154"
       id="rect13-2-1-4"
       width="4.2938995"
       height="9.3685083"
       x="25.112804"
       y="92.514008"
       d="m 25.112804,92.514008 h 4.2939 v 8.299792 a 1.0687177,1.0687177 135 0 1 -1.068718,1.06872 h -2.091614 a 1.1335671,1.1335671 45 0 1 -1.133568,-1.13357 z"
       transform="matrix(2.5873149,0,0,1.163323,85.100204,-18.420081)" />
    <path
       style="fill:#b3b3b3;fill-opacity:1;stroke-width:0.207154"
       id="rect13-2-14-2"
       width="4.2938995"
       height="9.3685083"
       x="25.112804"
       y="92.514008"
       d="m 25.112804,92.514008 h 4.2939 v 8.299792 a 1.0687177,1.0687177 135 0 1 -1.068718,1.06872 h -2.091614 a 1.1335671,1.1335671 45 0 1 -1.133568,-1.13357 z"
       transform="matrix(2.5873149,0,0,1.163323,106.16444,-18.420081)" />
    <path
       style="fill:#b3b3b3;fill-opacity:1;stroke-width:0.207154"
       id="rect13-8-5"
       width="4.2938995"
       height="9.3685083"
       x="25.112804"
       y="92.514008"
       d="m 25.112804,92.514008 h 4.2939 v 8.299792 a 1.0687177,1.0687177 135 0 1 -1.068718,1.06872 h -2.091614 a 1.1335671,1.1335671 45 0 1 -1.133568,-1.13357 z"
       transform="matrix(2.5873149,0,0,1.163323,-41.285208,-18.420081)" />
    <path
       style="fill:#b3b3b3;fill-opacity:1;stroke-width:0.207154"
       id="rect13-2-7-0"
       width="4.2938995"
       height="9.3685083"
       x="25.112804"
       y="92.514008"
       d="m 25.112804,92.514008 h 4.2939 v 8.299792 a 1.0687177,1.0687177 135 0 1 -1.068718,1.06872 h -2.091614 a 1.1335671,1.1335671 45 0 1 -1.133568,-1.13357 z"
       transform="matrix(2.5873149,0,0,1.163323,-20.220972,-18.420081)" />
    <path
       style="fill:#b3b3b3;fill-opacity:1;stroke-width:0.207154"
       id="rect13-2-1-4-2"
       width="4.2938995"
       height="9.3685083"
       x="25.112804"
       y="92.514008"
       d="m 25.112804,92.514008 h 4.2939 v 8.299792 a 1.0687177,1.0687177 135 0 1 -1.068718,1.06872 h -2.091614 a 1.1335671,1.1335671 45 0 1 -1.133568,-1.13357 z"
       transform="matrix(2.5873149,0,0,1.163323,0.84326291,-18.420081)" />
    <path
       style="fill:#b3b3b3;fill-opacity:1;stroke-width:0.207154"
       id="rect13-2-14-2-8"
       width="4.2938995"
       height="9.3685083"
       x="25.112804"
       y="92.514008"
       d="m 25.112804,92.514008 h 4.2939 v 8.299792 a 1.0687177,1.0687177 135 0 1 -1.068718,1.06872 h -2.091614 a 1.1335671,1.1335671 45 0 1 -1.133568,-1.13357 z"
       transform="matrix(2.5873149,0,0,1.163323,21.907498,-18.420081)" />
    <path
       style="fill:#b3b3b3;fill-opacity:1;stroke-width:0.207154"
       id="rect13-8-1"
       width="4.2938995"
       height="9.3685083"
       x="25.112804"
       y="92.514008"
       d="m 25.112804,92.514008 h 4.2939 v 8.299792 a 1.0687177,1.0687177 135 0 1 -1.068718,1.06872 h -2.091614 a 1.1335671,1.1335671 45 0 1 -1.133568,-1.13357 z"
       transform="matrix(2.5873149,0,0,-1.163323,42.964718,166.85068)" />
    <path
       style="fill:#b3b3b3;fill-opacity:1;stroke-width:0.207154"
       id="rect13-2-7-3"
       width="4.2938995"
       height="9.3685083"
       x="25.112804"
       y="92.514008"
       d="m 25.112804,92.514008 h 4.2939 v 8.299792 a 1.0687177,1.0687177 135 0 1 -1.068718,1.06872 h -2.091614 a 1.1335671,1.1335671 45 0 1 -1.133568,-1.13357 z"
       transform="matrix(2.5873149,0,0,-1.163323,64.028949,166.85068)" />
    <path
       style="fill:#b3b3b3;fill-opacity:1;stroke-width:0.207154"
       id="rect13-2-1-4-8"
       width="4.2938995"
       height="9.3685083"
       x="25.112804"
       y="92.514008"
       d="m 25.112804,92.514008 h 4.2939 v 8.299792 a 1.0687177,1.0687177 135 0 1 -1.068718,1.06872 h -2.091614 a 1.1335671,1.1335671 45 0 1 -1.133568,-1.13357 z"
       transform="matrix(2.5873149,0,0,-1.163323,85.09319,166.85068)" />
    <path
       style="fill:#b3b3b3;fill-opacity:1;stroke-width:0.207154"
       id="rect13-2-14-2-9"
       width="4.2938995"
       height="9.3685083"
       x="25.112804"
       y="92.514008"
       d="m 25.112804,92.514008 h 4.2939 v 8.299792 a 1.0687177,1.0687177 135 0 1 -1.068718,1.06872 h -2.091614 a 1.1335671,1.1335671 45 0 1 -1.133568,-1.13357 z"
       transform="matrix(2.5873149,0,0,-1.163323,106.15742,166.85068)" />
    <path
       style="fill:#b3b3b3;fill-opacity:1;stroke-width:0.207154"
       id="rect13-8-5-3"
       width="4.2938995"
       height="9.3685083"
       x="25.112804"
       y="92.514008"
       d="m 25.112804,92.514008 h 4.2939 v 8.299792 a 1.0687177,1.0687177 135 0 1 -1.068718,1.06872 h -2.091614 a 1.1335671,1.1335671 45 0 1 -1.133568,-1.13357 z"
       transform="matrix(2.5873149,0,0,-1.163323,-41.292223,166.85068)" />
    <path
       style="fill:#b3b3b3;fill-opacity:1;stroke-width:0.207154"
       id="rect13-2-7-0-4"
       width="4.2938995"
       height="9.3685083"
       x="25.112804"
       y="92.514008"
       d="m 25.112804,92.514008 h 4.2939 v 8.299792 a 1.0687177,1.0687177 135 0 1 -1.068718,1.06872 h -2.091614 a 1.1335671,1.1335671 45 0 1 -1.133568,-1.13357 z"
       transform="matrix(2.5873149,0,0,-1.163323,-20.227986,166.85068)" />
    <path
       style="fill:#b3b3b3;fill-opacity:1;stroke-width:0.207154"
       id="rect13-2-1-4-2-4"
       width="4.2938995"
       height="9.3685083"
       x="25.112804"
       y="92.514008"
       d="m 25.112804,92.514008 h 4.2939 v 8.299792 a 1.0687177,1.0687177 135 0 1 -1.068718,1.06872 h -2.091614 a 1.1335671,1.1335671 45 0 1 -1.133568,-1.13357 z"
       transform="matrix(2.5873149,0,0,-1.163323,0.83624708,166.85068)" />
    <path
       style="fill:#b3b3b3;fill-opacity:1;stroke-width:0.207154"
       id="rect13-2-14-2-8-6"
       width="4.2938995"
       height="9.3685083"
       x="25.112804"
       y="92.514008"
       d="m 25.112804,92.514008 h 4.2939 v 8.299792 a 1.0687177,1.0687177 135 0 1 -1.068718,1.06872 h -2.091614 a 1.1335671,1.1335671 45 0 1 -1.133568,-1.13357 z"
       transform="matrix(2.5873149,0,0,-1.163323,21.900483,166.85068)" />
    <path
       d="m 22.832513,53.348284 c -0.968446,-3.9e-5 -1.753539,0.547621 -1.753482,1.223182 v 4.890851 4.890852 4.890851 c 0,0 4.851998,0.619738 4.690265,4.890851 -0.161733,4.271113 -4.690265,4.890851 -4.690265,4.890851 v 4.890851 4.890852 4.890851 c -1.4e-5,0.639588 0.743265,1.158079 1.660141,1.158069 H 182.53939 c 0.8653,-1.8e-5 1.56677,-0.48934 1.5668,-1.092956 V 54.636578 c 1e-4,-0.711536 -0.82681,-1.288366 -1.84683,-1.288294 z"
       style="fill:#141414;fill-opacity:1;stroke:#000000;stroke-width:2.417;stroke-dasharray:none;stroke-opacity:1"
       id="path8" />
  </g>
</svg>
